<?xml version="1.0" encoding="utf-8" standalone="no"?>
<!DOCTYPE svg PUBLIC "-//W3C//DTD SVG 1.1//EN"
  "http://www.w3.org/Graphics/SVG/1.1/DTD/svg11.dtd">
<svg xmlns:xlink="http://www.w3.org/1999/xlink" width="720pt" height="360pt" viewBox="0 0 720 360" xmlns="http://www.w3.org/2000/svg" version="1.1">
 <metadata>
  <rdf:RDF xmlns:dc="http://purl.org/dc/elements/1.1/" xmlns:cc="http://creativecommons.org/ns#" xmlns:rdf="http://www.w3.org/1999/02/22-rdf-syntax-ns#">
   <cc:Work>
    <dc:type rdf:resource="http://purl.org/dc/dcmitype/StillImage"/>
    <dc:date>2024-07-25T18:09:52.744735</dc:date>
    <dc:format>image/svg+xml</dc:format>
    <dc:creator>
     <cc:Agent>
      <dc:title>Matplotlib v3.8.4, https://matplotlib.org/</dc:title>
     </cc:Agent>
    </dc:creator>
   </cc:Work>
  </rdf:RDF>
 </metadata>
 <defs>
  <style type="text/css">*{stroke-linejoin: round; stroke-linecap: butt}</style>
 </defs>
 <g id="figure_1">
  <g id="patch_1">
   <path d="M 0 360 
L 720 360 
L 720 0 
L 0 0 
z
" style="fill: #ffffff"/>
  </g>
  <g id="axes_1">
   <g id="patch_2">
    <path d="M 295.754723 72.092485 
C 293.359125 71.77642 290.953805 71.53901 288.542643 71.380637 
C 286.13148 71.222264 283.715772 71.143014 281.299414 71.143014 
L 281.299414 126.399451 
C 282.507593 126.399451 283.715447 126.439076 284.921028 126.518263 
C 286.126609 126.597449 287.329269 126.716154 288.527068 126.874187 
z
" style="fill: #48a1df; stroke: #ffffff; stroke-linejoin: miter"/>
   </g>
   <g id="patch_3">
    <path d="M 296.910288 72.251154 
C 296.717835 72.223693 296.52531 72.19674 296.332715 72.170295 
C 296.140119 72.14385 295.947455 72.117913 295.754723 72.092485 
L 288.527068 126.874187 
C 288.623434 126.886901 288.719767 126.899869 288.816064 126.913092 
C 288.912362 126.926314 289.008624 126.939791 289.104851 126.953521 
z
" style="fill: #258fd8; stroke: #ffffff; stroke-linejoin: miter"/>
   </g>
   <g id="patch_4">
    <path d="M 300.647341 72.849854 
C 300.026264 72.739414 299.404254 72.634294 298.781377 72.534505 
C 298.158501 72.434716 297.534782 72.340262 296.910288 72.251154 
L 289.104851 126.953521 
C 289.417098 126.998075 289.728957 127.045302 290.040396 127.095197 
C 290.351834 127.145091 290.662839 127.197651 290.973377 127.252871 
z
" style="fill: #1f77b4; stroke: #ffffff; stroke-linejoin: miter"/>
   </g>
   <g id="patch_5">
    <path d="M 303.686128 73.434216 
C 303.181058 73.329737 302.675263 73.228796 302.16878 73.131398 
C 301.662297 73.034001 301.155138 72.940151 300.647341 72.849854 
L 290.973377 127.252871 
C 291.227276 127.29802 291.480855 127.344945 291.734097 127.393643 
C 291.987339 127.442342 292.240236 127.492813 292.492771 127.545052 
z
" style="fill: #195f90; stroke: #ffffff; stroke-linejoin: miter"/>
   </g>
   <g id="patch_6">
    <path d="M 304.222 73.546451 
C 304.132735 73.527524 304.043446 73.508708 303.954134 73.490002 
C 303.864822 73.471296 303.775487 73.452701 303.686128 73.434216 
L 292.492771 127.545052 
C 292.53745 127.554295 292.582118 127.563592 292.626774 127.572945 
C 292.67143 127.582298 292.716074 127.591706 292.760707 127.60117 
z
" style="fill: #13476c; stroke: #ffffff; stroke-linejoin: miter"/>
   </g>
   <g id="patch_7">
    <path d="M 382.14305 136.44907 
C 375.024921 120.570535 364.256129 106.595417 350.716302 95.665243 
C 337.176474 84.735069 321.244586 77.155773 304.222 73.546451 
L 292.760707 127.60117 
C 301.272 129.405831 309.237944 133.195479 316.007858 138.660566 
C 322.777772 144.125653 328.162167 151.113212 331.721232 159.052479 
z
" style="fill: #ffb87a; stroke: #ffffff; stroke-linejoin: miter"/>
   </g>
   <g id="patch_8">
    <path d="M 386.513194 147.845301 
C 385.890479 145.907498 385.214347 143.987267 384.485572 142.086808 
C 383.756798 140.186348 382.975659 138.306385 382.14305 136.44907 
L 331.721232 159.052479 
C 332.137537 159.981137 332.528106 160.921118 332.892493 161.871348 
C 333.25688 162.821578 333.594946 163.781693 333.906304 164.750595 
z
" style="fill: #ff9c44; stroke: #ffffff; stroke-linejoin: miter"/>
   </g>
   <g id="patch_9">
    <path d="M 390.804346 166.764102 
C 390.368032 163.555721 389.790925 160.368065 389.074697 157.210361 
C 388.358468 154.052658 387.503809 150.927956 386.513194 147.845301 
L 333.906304 164.750595 
C 334.401612 166.291922 334.828941 167.854273 335.187055 169.433125 
C 335.54517 171.011977 335.833723 172.605805 336.05188 174.209995 
z
" style="fill: #ff7f0e; stroke: #ffffff; stroke-linejoin: miter"/>
   </g>
   <g id="patch_10">
    <path d="M 391.481119 173.106777 
C 391.398865 172.046684 391.301316 170.987833 391.188503 169.930556 
C 391.07569 168.873278 390.947624 167.817683 390.804346 166.764102 
L 336.05188 174.209995 
C 336.123519 174.736786 336.187552 175.264583 336.243959 175.793222 
C 336.300365 176.321861 336.34914 176.851286 336.390266 177.381333 
z
" style="fill: #d76500; stroke: #ffffff; stroke-linejoin: miter"/>
   </g>
   <g id="patch_11">
    <path d="M 391.542439 173.937668 
C 391.532741 173.799148 391.522782 173.660647 391.512562 173.522165 
C 391.502342 173.383683 391.491861 173.24522 391.481119 173.106777 
L 336.390266 177.381333 
C 336.395637 177.450554 336.400878 177.519786 336.405988 177.589027 
C 336.411098 177.658268 336.416077 177.727518 336.420926 177.796778 
z
" style="fill: #a14c00; stroke: #ffffff; stroke-linejoin: miter"/>
   </g>
   <g id="patch_12">
    <path d="M 391.520394 189.682784 
C 391.711178 187.063031 391.808502 184.437308 391.81218 181.810619 
C 391.815858 179.183931 391.725887 176.557945 391.542439 173.937668 
L 336.420926 177.796778 
C 336.51265 179.106917 336.557636 180.419909 336.555797 181.733254 
C 336.553958 183.046598 336.505296 184.35946 336.409904 185.669336 
z
" style="fill: #4fcf4f; stroke: #ffffff; stroke-linejoin: miter"/>
   </g>
   <g id="patch_13">
    <path d="M 391.269072 192.599827 
C 391.317397 192.114235 391.362505 191.628328 391.404393 191.142138 
C 391.446282 190.655948 391.484949 190.169486 391.520394 189.682784 
L 336.409904 185.669336 
C 336.392182 185.912687 336.372848 186.155918 336.351904 186.399013 
C 336.330959 186.642108 336.308405 186.885062 336.284243 187.127858 
z
" style="fill: #35c035; stroke: #ffffff; stroke-linejoin: miter"/>
   </g>
   <g id="patch_14">
    <path d="M 390.826674 196.382553 
C 390.911264 195.753427 390.990432 195.123585 391.064169 194.493096 
C 391.137906 193.862606 391.20621 193.231493 391.269072 192.599827 
L 336.284243 187.127858 
C 336.252812 187.443691 336.21866 187.759247 336.181792 188.074492 
C 336.144923 188.389737 336.105339 188.704658 336.063044 189.019221 
z
" style="fill: #2ca02c; stroke: #ffffff; stroke-linejoin: miter"/>
   </g>
   <g id="patch_15">
    <path d="M 389.884131 202.209592 
C 390.067126 201.242831 390.237202 200.273669 390.394314 199.302366 
C 390.551426 198.331063 390.695559 197.357705 390.826674 196.382553 
L 336.063044 189.019221 
C 335.997486 189.506797 335.92542 189.993476 335.846864 190.479127 
C 335.768308 190.964779 335.68327 191.44936 335.591772 191.93274 
z
" style="fill: #238023; stroke: #ffffff; stroke-linejoin: miter"/>
   </g>
   <g id="patch_16">
    <path d="M 389.661152 203.354488 
C 389.699321 203.16387 389.736988 202.973151 389.774152 202.782334 
C 389.811315 202.591517 389.847975 202.400602 389.884131 202.209592 
L 335.591772 191.93274 
C 335.573694 192.028245 335.555364 192.123703 335.536783 192.219111 
C 335.518201 192.31452 335.499368 192.409879 335.480283 192.505188 
z
" style="fill: #1a601a; stroke: #ffffff; stroke-linejoin: miter"/>
   </g>
   <g id="patch_17">
    <path d="M 383.241003 224.329157 
C 384.655295 220.950573 385.900752 217.503768 386.972762 214.001505 
C 388.044772 210.499242 388.942009 206.94585 389.661152 203.354488 
L 335.480283 192.505188 
C 335.120712 194.300869 334.672093 196.077565 334.136088 197.828697 
C 333.600083 199.579828 332.977355 201.303231 332.270208 202.992523 
z
" style="fill: #e77b7c; stroke: #ffffff; stroke-linejoin: miter"/>
   </g>
   <g id="patch_18">
    <path d="M 382.699939 225.599363 
C 382.791437 225.388228 382.882276 225.176808 382.972454 224.965105 
C 383.062633 224.753402 383.152149 224.541418 383.241003 224.329157 
L 332.270208 202.992523 
C 332.225782 203.098653 332.181023 203.204645 332.135934 203.310497 
C 332.090845 203.416348 332.045426 203.522058 331.999676 203.627626 
z
" style="fill: #df5051; stroke: #ffffff; stroke-linejoin: miter"/>
   </g>
   <g id="patch_19">
    <path d="M 381.349115 228.593642 
C 381.581654 228.097976 381.810506 227.600589 382.035653 227.101522 
C 382.260799 226.602455 382.482234 226.101721 382.699939 225.599363 
L 331.999676 203.627626 
C 331.890824 203.878805 331.780107 204.129172 331.667533 204.378705 
C 331.55496 204.628239 331.440534 204.876932 331.324264 205.124765 
z
" style="fill: #d62728; stroke: #ffffff; stroke-linejoin: miter"/>
   </g>
   <g id="patch_20">
    <path d="M 379.541878 232.267287 
C 379.854394 231.660658 380.161284 231.051148 380.46251 230.438834 
C 380.763735 229.826521 381.059283 229.21143 381.349115 228.593642 
L 331.324264 205.124765 
C 331.179349 205.433659 331.031575 205.741205 330.880962 206.047361 
C 330.730349 206.353518 330.576904 206.658273 330.420646 206.961588 
z
" style="fill: #ab1f20; stroke: #ffffff; stroke-linejoin: miter"/>
   </g>
   <g id="patch_21">
    <path d="M 378.394924 234.434268 
C 378.590082 234.075239 378.783247 233.71513 378.974411 233.353958 
C 379.165574 232.992786 379.354733 232.630557 379.541878 232.267287 
L 330.420646 206.961588 
C 330.327073 207.143223 330.232494 207.324337 330.136912 207.504923 
C 330.041331 207.685509 329.944748 207.865564 329.847169 208.045078 
z
" style="fill: #801718; stroke: #ffffff; stroke-linejoin: miter"/>
   </g>
   <g id="patch_22">
    <path d="M 365.521223 253.208542 
C 367.982609 250.311342 370.292863 247.289064 372.442767 244.153765 
C 374.592672 241.018465 376.579366 237.774319 378.394924 234.434268 
L 329.847169 208.045078 
C 328.93939 209.715104 327.946043 211.337177 326.871091 212.904827 
C 325.796138 214.472476 324.641012 215.983615 323.410318 217.432215 
z
" style="fill: #cdb8e0; stroke: #ffffff; stroke-linejoin: miter"/>
   </g>
   <g id="patch_23">
    <path d="M 364.055297 254.89904 
C 364.302462 254.619773 364.548213 254.339256 364.792538 254.057501 
C 365.036864 253.775746 365.279762 253.492756 365.521223 253.208542 
L 323.410318 217.432215 
C 323.289588 217.574322 323.168139 217.715817 323.045976 217.856695 
C 322.923813 217.997572 322.800938 218.137831 322.677355 218.277464 
z
" style="fill: #b190cf; stroke: #ffffff; stroke-linejoin: miter"/>
   </g>
   <g id="patch_24">
    <path d="M 358.627455 260.608213 
C 359.565657 259.689312 360.487406 258.753761 361.392262 257.802005 
C 362.297118 256.85025 363.184937 255.882441 364.055297 254.89904 
L 322.677355 218.277464 
C 322.242176 218.769165 321.798266 219.253069 321.345838 219.728947 
C 320.89341 220.204825 320.432536 220.6726 319.963434 221.132051 
z
" style="fill: #9467bd; stroke: #ffffff; stroke-linejoin: miter"/>
   </g>
   <g id="patch_25">
    <path d="M 356.001526 263.097216 
C 356.445935 262.689582 356.887 262.278316 357.324677 261.863462 
C 357.762354 261.448607 358.196628 261.030176 358.627455 260.608213 
L 319.963434 221.132051 
C 319.748021 221.343032 319.530884 221.552248 319.312045 221.759675 
C 319.093207 221.967102 318.872674 222.172735 318.65047 222.376552 
z
" style="fill: #7747a3; stroke: #ffffff; stroke-linejoin: miter"/>
   </g>
   <g id="patch_26">
    <path d="M 355.702805 263.370213 
C 355.752675 263.324804 355.802504 263.279351 355.85229 263.233851 
C 355.902077 263.188352 355.951822 263.142807 356.001526 263.097216 
L 318.65047 222.376552 
C 318.625618 222.399348 318.600746 222.42212 318.575852 222.44487 
C 318.550959 222.46762 318.526045 222.490346 318.50111 222.513051 
z
" style="fill: #59357a; stroke: #ffffff; stroke-linejoin: miter"/>
   </g>
   <g id="patch_27">
    <path d="M 340.970702 274.674343 
C 343.579115 273.001047 346.11599 271.218775 348.574601 269.332252 
C 351.033211 267.445729 353.411381 265.456624 355.702805 263.370213 
L 318.50111 222.513051 
C 317.355398 223.556256 316.166312 224.550809 314.937007 225.49407 
C 313.707702 226.437332 312.439264 227.328468 311.135058 228.165116 
z
" style="fill: #b68277; stroke: #ffffff; stroke-linejoin: miter"/>
   </g>
   <g id="patch_28">
    <path d="M 339.763588 275.437741 
C 339.965593 275.311809 340.167191 275.185226 340.368378 275.057992 
C 340.569565 274.930758 340.770341 274.802874 340.970702 274.674343 
L 311.135058 228.165116 
C 311.034877 228.229381 310.93449 228.293323 310.833896 228.35694 
C 310.733302 228.420557 310.632503 228.483849 310.531501 228.546815 
z
" style="fill: #a7685b; stroke: #ffffff; stroke-linejoin: miter"/>
   </g>
   <g id="patch_29">
    <path d="M 335.421623 278.008791 
C 336.15495 277.596876 336.88355 277.176602 337.607282 276.748051 
C 338.331013 276.319501 339.049829 275.882702 339.763588 275.437741 
L 310.531501 228.546815 
C 310.174621 228.769295 309.815214 228.987695 309.453348 229.20197 
C 309.091482 229.416245 308.727182 229.626382 308.360518 229.83234 
z
" style="fill: #8c564b; stroke: #ffffff; stroke-linejoin: miter"/>
   </g>
   <g id="patch_30">
    <path d="M 332.132872 279.783636 
C 332.68595 279.497123 333.236596 279.20594 333.78475 278.910116 
C 334.332905 278.614293 334.878548 278.313841 335.421623 278.008791 
L 308.360518 229.83234 
C 308.088981 229.984865 307.816159 230.135091 307.542082 230.283002 
C 307.268005 230.430914 306.992682 230.576506 306.716143 230.719762 
z
" style="fill: #70453c; stroke: #ffffff; stroke-linejoin: miter"/>
   </g>
   <g id="patch_31">
    <path d="M 331.370434 280.174863 
C 331.497759 280.110152 331.624959 280.045193 331.752032 279.979989 
C 331.879106 279.914784 332.006053 279.849333 332.132872 279.783636 
L 306.716143 230.719762 
C 306.652733 230.752611 306.58926 230.785336 306.525723 230.817939 
C 306.462186 230.850541 306.398587 230.88302 306.334924 230.915376 
z
" style="fill: #54342d; stroke: #ffffff; stroke-linejoin: miter"/>
   </g>
   <g id="patch_32">
    <path d="M 300.342585 290.515675 
C 305.734256 289.572493 311.048413 288.230051 316.241165 286.499436 
C 321.433917 284.768821 326.490929 282.65481 331.370434 280.174863 
L 306.334924 230.915376 
C 303.895171 232.155349 301.366665 233.212355 298.770289 234.077662 
C 296.173913 234.94297 293.516835 235.614191 290.821 236.085782 
z
" style="fill: #fbeaf5; stroke: #ffffff; stroke-linejoin: miter"/>
   </g>
   <g id="patch_33">
    <path d="M 299.145598 290.718298 
C 299.34528 290.685623 299.544871 290.652401 299.74437 290.61863 
C 299.943869 290.584859 300.143275 290.550541 300.342585 290.515675 
L 290.821 236.085782 
C 290.721344 236.103215 290.621641 236.120374 290.521892 236.137259 
C 290.422143 236.154145 290.322347 236.170756 290.222506 236.187093 
z
" style="fill: #efb0dc; stroke: #ffffff; stroke-linejoin: miter"/>
   </g>
   <g id="patch_34">
    <path d="M 294.573913 291.368618 
C 295.338021 291.276166 296.101143 291.175734 296.863153 291.067339 
C 297.625162 290.958943 298.386019 290.84259 299.145598 290.718298 
L 290.222506 236.187093 
C 289.842717 236.249239 289.462288 236.307416 289.081283 236.361614 
C 288.700278 236.415811 288.318717 236.466027 287.936663 236.512253 
z
" style="fill: #e377c2; stroke: #ffffff; stroke-linejoin: miter"/>
   </g>
   <g id="patch_35">
    <path d="M 290.880521 291.752654 
C 291.497108 291.698996 292.113232 291.640159 292.72883 291.57615 
C 293.344428 291.51214 293.959477 291.442961 294.573913 291.368618 
L 287.936663 236.512253 
C 287.629446 236.549425 287.321921 236.584014 287.014122 236.616019 
C 286.706323 236.648024 286.398261 236.677442 286.089968 236.704271 
z
" style="fill: #d73ea8; stroke: #ffffff; stroke-linejoin: miter"/>
   </g>
   <g id="patch_36">
    <path d="M 289.243208 291.882889 
C 289.51625 291.863211 289.789218 291.842519 290.062106 291.820813 
C 290.334995 291.799107 290.607802 291.776387 290.880521 291.752654 
L 286.089968 236.704271 
C 285.953608 236.716138 285.817204 236.727498 285.68076 236.738351 
C 285.544316 236.749204 285.407832 236.75955 285.271311 236.769389 
z
" style="fill: #ac2382; stroke: #ffffff; stroke-linejoin: miter"/>
   </g>
   <g id="patch_37">
    <path d="M 242.732351 285.220733 
C 250.134433 287.977234 257.810753 289.932235 265.629627 291.052201 
C 273.448501 292.172166 281.364962 292.450655 289.243208 291.882889 
L 285.271311 236.769389 
C 281.332188 237.053272 277.373957 236.914027 273.46452 236.354045 
C 269.555083 235.794062 265.716923 234.816561 262.015882 233.438311 
z
" style="fill: #b2b2b2; stroke: #ffffff; stroke-linejoin: miter"/>
   </g>
   <g id="patch_38">
    <path d="M 233.512122 281.302615 
C 235.018229 282.024894 236.540518 282.712935 238.077815 283.366207 
C 239.615113 284.019478 241.167023 284.637813 242.732351 285.220733 
L 262.015882 233.438311 
C 261.233219 233.146851 260.457263 232.837683 259.688615 232.511048 
C 258.919966 232.184412 258.158821 231.840391 257.405768 231.479252 
z
" style="fill: #989898; stroke: #ffffff; stroke-linejoin: miter"/>
   </g>
   <g id="patch_39">
    <path d="M 227.197958 278.020445 
C 228.232361 278.601185 229.276049 279.165232 230.328614 279.712367 
C 231.381179 280.259502 232.442486 280.789653 233.512122 281.302615 
L 257.405768 231.479252 
C 256.87095 231.222771 256.340297 230.957695 255.814014 230.684128 
C 255.287731 230.41056 254.765888 230.128537 254.248686 229.838167 
z
" style="fill: #7f7f7f; stroke: #ffffff; stroke-linejoin: miter"/>
   </g>
   <g id="patch_40">
    <path d="M 224.072479 276.197802 
C 224.588376 276.510078 225.10682 276.818126 225.627759 277.121915 
C 226.148698 277.425704 226.672115 277.725224 227.197958 278.020445 
L 254.248686 229.838167 
C 253.985765 229.690556 253.724056 229.540796 253.463586 229.388902 
C 253.203117 229.237007 252.943895 229.082983 252.685947 228.926845 
z
" style="fill: #666666; stroke: #ffffff; stroke-linejoin: miter"/>
   </g>
   <g id="patch_41">
    <path d="M 222.815038 275.425143 
C 223.023749 275.555317 223.232894 275.684794 223.442469 275.813572 
C 223.652044 275.942349 223.862049 276.070426 224.072479 276.197802 
L 252.685947 228.926845 
C 252.580731 228.863157 252.475729 228.799119 252.370941 228.73473 
C 252.266154 228.670341 252.161581 228.605603 252.057226 228.540516 
z
" style="fill: #4c4c4c; stroke: #ffffff; stroke-linejoin: miter"/>
   </g>
   <g id="patch_42">
    <path d="M 172.454015 200.781124 
C 175.138752 216.060479 181.010945 230.604687 189.687484 243.464865 
C 198.364022 256.325043 209.652022 267.215301 222.815038 275.425143 
L 252.057226 228.540516 
C 245.475718 224.435595 239.831718 218.990466 235.493449 212.560377 
C 231.15518 206.130288 228.219083 198.858184 226.876715 191.218506 
z
" style="fill: #e0e157; stroke: #ffffff; stroke-linejoin: miter"/>
   </g>
   <g id="patch_43">
    <path d="M 171.602487 195.060354 
C 171.719425 196.017326 171.84888 196.972727 171.99082 197.926311 
C 172.132759 198.879895 172.287171 199.831581 172.454015 200.781124 
L 226.876715 191.218506 
C 226.793293 190.743735 226.716087 190.267892 226.645117 189.7911 
C 226.574147 189.314308 226.509419 188.836607 226.450951 188.358121 
z
" style="fill: #d9da32; stroke: #ffffff; stroke-linejoin: miter"/>
   </g>
   <g id="patch_44">
    <path d="M 171.071559 173.723962 
C 170.8158 177.278183 170.732095 180.842696 170.820738 184.405005 
C 170.909382 187.967314 171.17027 191.523252 171.602487 195.060354 
L 226.450951 188.358121 
C 226.234842 186.58957 226.104398 184.811601 226.060076 183.030447 
C 226.015754 181.249292 226.057607 179.467036 226.185487 177.689925 
z
" style="fill: #bcbd22; stroke: #ffffff; stroke-linejoin: miter"/>
   </g>
   <g id="patch_45">
    <path d="M 173.944384 155.42627 
C 173.21074 158.428996 172.603398 161.461181 172.123962 164.514824 
C 171.644525 167.568468 171.293416 170.640882 171.071559 173.723962 
L 226.185487 177.689925 
C 226.296415 176.148385 226.47197 174.612178 226.711688 173.085356 
C 226.951406 171.558535 227.255077 170.042442 227.621899 168.541079 
z
" style="fill: #96971b; stroke: #ffffff; stroke-linejoin: miter"/>
   </g>
   <g id="patch_46">
    <path d="M 175.054873 151.238905 
C 174.856134 151.933087 174.664203 152.629201 174.479108 153.327145 
C 174.294013 154.02509 174.115763 154.724832 173.944384 155.42627 
L 227.621899 168.541079 
C 227.707589 168.19036 227.796714 167.840489 227.889261 167.491517 
C 227.981808 167.142545 228.077774 166.794488 228.177143 166.447397 
z
" style="fill: #717114; stroke: #ffffff; stroke-linejoin: miter"/>
   </g>
   <g id="patch_47">
    <path d="M 228.259802 84.702833 
C 215.430525 91.72128 204.120989 101.216874 194.988218 112.637972 
C 185.855447 124.059069 179.079789 137.180135 175.054873 151.238905 
L 228.177143 166.447397 
C 230.189602 159.418012 233.577431 152.857479 238.143816 147.14693 
C 242.710201 141.436381 248.364969 136.688584 254.779608 133.179361 
z
" style="fill: #56deec; stroke: #ffffff; stroke-linejoin: miter"/>
   </g>
   <g id="patch_48">
    <path d="M 238.373763 79.820316 
C 236.648096 80.547717 234.941197 81.318866 233.25472 82.133013 
C 231.568243 82.94716 229.902732 83.804044 228.259802 84.702833 
L 254.779608 133.179361 
C 255.601073 132.729966 256.433828 132.301524 257.277067 131.894451 
C 258.120305 131.487377 258.973755 131.101803 259.836589 130.738102 
z
" style="fill: #2cd6e8; stroke: #ffffff; stroke-linejoin: miter"/>
   </g>
   <g id="patch_49">
    <path d="M 265.523602 72.274815 
C 260.860951 72.9473 256.246067 73.917234 251.707201 75.178678 
C 247.168335 76.440123 242.714768 77.990499 238.373763 79.820316 
L 259.836589 130.738102 
C 262.007091 129.823194 264.233874 129.048006 266.503307 128.417283 
C 268.77274 127.786561 271.080183 127.301594 273.411508 126.965352 
z
" style="fill: #17becf; stroke: #ffffff; stroke-linejoin: miter"/>
   </g>
   <g id="patch_50">
    <path d="M 279.918801 71.151638 
C 277.510568 71.181726 275.103962 71.29053 272.702838 71.477877 
C 270.301715 71.665223 267.907357 71.931011 265.523602 72.274815 
L 273.411508 126.965352 
C 274.603386 126.79345 275.800564 126.660556 277.001126 126.566883 
C 278.201688 126.473209 279.404991 126.418807 280.609108 126.403763 
z
" style="fill: #1298a6; stroke: #ffffff; stroke-linejoin: miter"/>
   </g>
   <g id="patch_51">
    <path d="M 281.299417 71.143014 
C 281.069309 71.143014 280.8392 71.143733 280.609096 71.14517 
C 280.378991 71.146608 280.148892 71.148764 279.918801 71.151638 
L 280.609108 126.403763 
C 280.724153 126.402326 280.839203 126.401248 280.954255 126.400529 
C 281.069307 126.399811 281.184361 126.399451 281.299416 126.399451 
z
" style="fill: #0e727c; stroke: #ffffff; stroke-linejoin: miter"/>
   </g>
   <g id="patch_52">
    <path d="M 309.952646 46.519092 
C 305.245732 45.521079 300.489889 44.769665 295.704565 44.267923 
C 290.919241 43.766181 286.11097 43.514796 281.299414 43.514796 
L 281.299414 71.143014 
C 285.148658 71.143014 288.995276 71.344122 292.823535 71.745516 
C 296.651794 72.146909 300.456468 72.748041 304.221999 73.546451 
z
" style="fill: #1f77b4; stroke: #ffffff; stroke-linejoin: miter"/>
   </g>
   <g id="patch_53">
    <path d="M 419.103194 172.008106 
C 417.007879 142.079739 405.218719 113.633356 385.529244 90.996613 
C 365.839769 68.359871 339.301795 52.74203 309.952646 46.519092 
L 304.221999 73.546451 
C 327.701319 78.524802 348.931698 91.019075 364.683278 109.128468 
C 380.434858 127.237862 389.866186 149.994969 391.542438 173.937663 
z
" style="fill: #ff7f0e; stroke: #ffffff; stroke-linejoin: miter"/>
   </g>
   <g id="patch_54">
    <path d="M 416.751588 208.77913 
C 417.961397 202.737397 418.765623 196.621483 419.158875 190.472375 
C 419.552128 184.323267 419.533526 178.154731 419.103194 172.008106 
L 391.542438 173.937663 
C 391.886703 178.854962 391.901585 183.789791 391.586983 188.709078 
C 391.272381 193.628364 390.629001 198.521095 389.661153 203.354482 
z
" style="fill: #2ca02c; stroke: #ffffff; stroke-linejoin: miter"/>
   </g>
   <g id="patch_55">
    <path d="M 402.668805 247.628857 
C 405.971928 241.552155 408.814021 235.235954 411.171098 228.733561 
C 413.528175 222.231168 415.393586 215.560926 416.751588 208.77913 
L 389.661153 203.354482 
C 388.574751 208.779919 387.082423 214.116112 385.196761 219.318027 
C 383.3111 224.519941 381.037425 229.572902 378.394927 234.434263 
z
" style="fill: #d62728; stroke: #ffffff; stroke-linejoin: miter"/>
   </g>
   <g id="patch_56">
    <path d="M 374.303658 283.798789 
C 379.998015 278.613903 385.248834 272.961903 390.001207 266.901896 
C 394.75358 260.841888 398.990883 254.395069 402.668805 247.628857 
L 378.394927 234.434263 
C 375.452589 239.847233 372.062747 245.004688 368.260848 249.852694 
C 364.45895 254.7007 360.258295 259.2223 355.702809 263.370209 
z
" style="fill: #9467bd; stroke: #ffffff; stroke-linejoin: miter"/>
   </g>
   <g id="patch_57">
    <path d="M 343.888196 304.804603 
C 349.398847 302.003884 354.7153 298.836435 359.801697 295.323619 
C 364.888094 291.810804 369.732974 287.960537 374.303658 283.798789 
L 355.702809 263.370209 
C 352.046262 266.699608 348.170358 269.779821 344.101241 272.590073 
C 340.032123 275.400326 335.778961 277.934285 331.370439 280.17486 
z
" style="fill: #8c564b; stroke: #ffffff; stroke-linejoin: miter"/>
   </g>
   <g id="patch_58">
    <path d="M 291.229161 319.439638 
C 300.382625 318.77997 309.447614 317.209795 318.289687 314.752399 
C 327.131761 312.295004 335.70699 308.962598 343.888196 304.804603 
L 331.370439 280.17486 
C 324.825475 283.501256 317.965292 286.167181 310.891633 288.133097 
C 303.817974 290.099013 296.565983 291.355154 289.243212 291.882888 
z
" style="fill: #e377c2; stroke: #ffffff; stroke-linejoin: miter"/>
   </g>
   <g id="patch_59">
    <path d="M 208.193949 298.86746 
C 220.518901 306.554597 233.979549 312.249872 248.078992 315.743043 
C 262.178434 319.236215 276.741017 320.483764 291.229161 319.439638 
L 289.243212 291.882888 
C 277.652696 292.718189 266.00263 291.72015 254.723076 288.925612 
C 243.443522 286.131075 232.675004 281.574855 222.815042 275.425146 
z
" style="fill: #7f7f7f; stroke: #ffffff; stroke-linejoin: miter"/>
   </g>
   <g id="patch_60">
    <path d="M 148.493735 143.634669 
C 140.236247 172.477544 141.595506 203.240076 152.364722 231.242246 
C 163.133939 259.244416 182.737818 282.99034 208.193949 298.86746 
L 222.815042 275.425146 
C 202.450137 262.723449 186.767034 243.72671 178.151661 221.324975 
C 169.536287 198.923239 168.44888 174.313213 175.054871 151.238913 
z
" style="fill: #bcbd22; stroke: #ffffff; stroke-linejoin: miter"/>
   </g>
   <g id="patch_61">
    <path d="M 281.299404 43.514796 
C 251.297779 43.514798 222.097501 53.288476 198.140921 71.348923 
C 174.18434 89.409371 156.751222 114.791794 148.493735 143.634669 
L 175.054871 151.238913 
C 181.660861 128.164613 195.607355 107.858675 214.772619 93.410316 
C 233.937884 78.961958 257.298106 71.143016 281.299406 71.143014 
z
" style="fill: #17becf; stroke: #ffffff; stroke-linejoin: miter"/>
   </g>
   <g id="matplotlib.axis_1"/>
   <g id="matplotlib.axis_2"/>
   <g id="text_1">
    <!-- A001 -->
    <g transform="translate(297.14508 35.509808) scale(0.2 -0.2)">
     <defs>
      <path id="CMSS17-41" d="M 2272 4416 
L 1722 4416 
L 166 0 
L 653 0 
L 1101 1280 
L 2816 1280 
L 3270 0 
L 3827 0 
L 2272 4416 
z
M 2694 1637 
L 1222 1637 
C 1530 2528 1914 3638 1958 3925 
L 1965 3925 
C 2010 3663 2138 3281 2246 2956 
L 2694 1637 
z
" transform="scale(0.015625)"/>
      <path id="CMSS17-30" d="M 2758 2044 
C 2758 2405 2752 3077 2490 3596 
C 2227 4096 1805 4229 1504 4229 
C 1069 4229 698 3975 506 3570 
C 301 3146 243 2709 243 2044 
C 243 1589 262 1031 493 543 
C 755 5 1197 -128 1498 -128 
C 1894 -128 2278 81 2496 518 
C 2720 974 2758 1474 2758 2044 
z
M 1498 261 
C 1011 261 864 811 819 995 
C 742 1310 730 1614 730 2114 
C 730 2506 730 2948 851 3297 
C 998 3701 1254 3840 1498 3840 
C 1971 3840 2125 3372 2176 3208 
C 2272 2873 2272 2481 2272 2114 
C 2272 1526 2272 261 1498 261 
z
" transform="scale(0.015625)"/>
      <path id="CMSS17-31" d="M 1818 4288 
L 1696 4288 
C 1350 3940 947 3890 538 3890 
L 538 3520 
C 723 3520 1024 3520 1325 3667 
L 1325 369 
L 570 369 
L 570 0 
L 2573 0 
L 2573 369 
L 1818 369 
L 1818 4288 
z
" transform="scale(0.015625)"/>
     </defs>
     <use xlink:href="#CMSS17-41" transform="scale(0.996264)"/>
     <use xlink:href="#CMSS17-30" transform="translate(62.217855 0) scale(0.996264)"/>
     <use xlink:href="#CMSS17-30" transform="translate(109.061478 0) scale(0.996264)"/>
     <use xlink:href="#CMSS17-31" transform="translate(155.905102 0) scale(0.996264)"/>
    </g>
   </g>
   <g id="text_2">
    <!-- A002 -->
    <g transform="translate(395.952227 86.911368) scale(0.2 -0.2)">
     <defs>
      <path id="CMSS17-32" d="M 1651 1357 
C 1830 1541 2099 1764 2285 1987 
C 2464 2204 2701 2511 2701 2957 
C 2701 3657 2227 4288 1421 4288 
C 787 4288 422 3893 250 3274 
L 499 2929 
C 640 3510 838 3880 1338 3880 
C 1888 3880 2195 3433 2195 2942 
C 2195 2355 1747 1901 1408 1563 
C 1030 1187 659 804 301 408 
L 301 0 
L 2701 0 
L 2701 433 
L 1613 433 
C 1536 433 1459 433 1382 433 
L 742 433 
L 742 439 
L 1651 1357 
z
" transform="scale(0.015625)"/>
     </defs>
     <use xlink:href="#CMSS17-41" transform="scale(0.996264)"/>
     <use xlink:href="#CMSS17-30" transform="translate(62.217855 0) scale(0.996264)"/>
     <use xlink:href="#CMSS17-30" transform="translate(109.061478 0) scale(0.996264)"/>
     <use xlink:href="#CMSS17-32" transform="translate(155.905102 0) scale(0.996264)"/>
    </g>
   </g>
   <g id="text_3">
    <!-- A003 -->
    <g transform="translate(432.944822 196.334705) scale(0.2 -0.2)">
     <defs>
      <path id="CMSS17-33" d="M 1005 2025 
L 1440 2025 
C 2042 2025 2214 1507 2214 1146 
C 2214 653 1933 267 1472 267 
C 1114 267 608 444 320 912 
C 275 691 275 678 250 526 
C 550 88 1037 -128 1485 -128 
C 2214 -128 2752 473 2752 1138 
C 2752 1638 2400 2057 1920 2215 
C 2304 2424 2586 2816 2586 3273 
C 2586 3805 2093 4229 1491 4229 
C 941 4229 512 3892 333 3530 
C 378 3468 493 3284 550 3189 
C 691 3562 1056 3840 1485 3840 
C 1843 3840 2080 3607 2080 3271 
C 2080 2923 1856 2543 1478 2455 
C 1453 2455 1056 2417 1005 2411 
L 1005 2025 
z
" transform="scale(0.015625)"/>
     </defs>
     <use xlink:href="#CMSS17-41" transform="scale(0.996264)"/>
     <use xlink:href="#CMSS17-30" transform="translate(62.217855 0) scale(0.996264)"/>
     <use xlink:href="#CMSS17-30" transform="translate(109.061478 0) scale(0.996264)"/>
     <use xlink:href="#CMSS17-33" transform="translate(155.905102 0) scale(0.996264)"/>
    </g>
   </g>
   <g id="text_4">
    <!-- A004 -->
    <g transform="translate(424.158266 238.42201) scale(0.2 -0.2)">
     <defs>
      <path id="CMSS17-34" d="M 2253 1088 
L 2835 1088 
L 2835 1477 
L 2253 1477 
L 2253 4192 
L 1690 4192 
L 166 1477 
L 166 1088 
L 1747 1088 
L 1747 0 
L 2253 0 
L 2253 1088 
z
M 659 1477 
C 1030 2127 1766 3439 1766 3885 
L 1766 1477 
L 659 1477 
z
" transform="scale(0.015625)"/>
     </defs>
     <use xlink:href="#CMSS17-41" transform="scale(0.996264)"/>
     <use xlink:href="#CMSS17-30" transform="translate(62.217855 0) scale(0.996264)"/>
     <use xlink:href="#CMSS17-30" transform="translate(109.061478 0) scale(0.996264)"/>
     <use xlink:href="#CMSS17-34" transform="translate(155.905102 0) scale(0.996264)"/>
    </g>
   </g>
   <g id="text_5">
    <!-- A005 -->
    <g transform="translate(400.871386 280.407178) scale(0.2 -0.2)">
     <defs>
      <path id="CMSS17-35" d="M 934 3752 
L 2502 3752 
L 2502 4160 
L 467 4160 
L 467 1781 
L 896 1781 
C 1011 2046 1248 2240 1555 2240 
C 1843 2240 2163 1989 2163 1266 
C 2163 493 1709 267 1376 267 
C 966 267 589 512 422 851 
L 218 499 
C 512 49 992 -128 1376 -128 
C 2118 -128 2701 497 2701 1253 
C 2701 2030 2182 2629 1562 2629 
C 1338 2629 1120 2553 934 2399 
L 934 3752 
z
" transform="scale(0.015625)"/>
     </defs>
     <use xlink:href="#CMSS17-41" transform="scale(0.996264)"/>
     <use xlink:href="#CMSS17-30" transform="translate(62.217855 0) scale(0.996264)"/>
     <use xlink:href="#CMSS17-30" transform="translate(109.061478 0) scale(0.996264)"/>
     <use xlink:href="#CMSS17-35" transform="translate(155.905102 0) scale(0.996264)"/>
    </g>
   </g>
   <g id="text_6">
    <!-- A007 -->
    <g transform="translate(367.651926 311.671074) scale(0.2 -0.2)">
     <defs>
      <path id="CMSS17-37" d="M 1389 3776 
C 1466 3776 1542 3776 1619 3776 
L 2355 3776 
C 1440 2711 915 1365 915 -32 
L 1427 -32 
C 1427 1323 1875 2696 2752 3795 
L 2752 4209 
L 250 4209 
L 250 3776 
L 1389 3776 
z
" transform="scale(0.015625)"/>
     </defs>
     <use xlink:href="#CMSS17-41" transform="scale(0.996264)"/>
     <use xlink:href="#CMSS17-30" transform="translate(62.217855 0) scale(0.996264)"/>
     <use xlink:href="#CMSS17-30" transform="translate(109.061478 0) scale(0.996264)"/>
     <use xlink:href="#CMSS17-37" transform="translate(155.905102 0) scale(0.996264)"/>
    </g>
   </g>
   <g id="text_7">
    <!-- A008 -->
    <g transform="translate(321.988715 333.042732) scale(0.2 -0.2)">
     <defs>
      <path id="CMSS17-38" d="M 1933 2222 
C 2419 2380 2669 2760 2669 3134 
C 2669 3722 2157 4229 1504 4229 
C 826 4229 333 3708 333 3144 
C 333 2780 576 2403 1069 2241 
C 442 1997 250 1512 250 1149 
C 250 446 819 -128 1498 -128 
C 2202 -128 2752 455 2752 1138 
C 2752 1557 2502 2000 1933 2222 
z
M 1504 2432 
C 1075 2432 787 2712 787 3136 
C 787 3566 1075 3840 1504 3840 
C 1901 3840 2214 3591 2214 3136 
C 2214 2687 1907 2432 1504 2432 
z
M 1504 267 
C 1139 267 749 517 749 1156 
C 749 1813 1184 2043 1498 2043 
C 1843 2043 2253 1800 2253 1156 
C 2253 491 1830 267 1504 267 
z
" transform="scale(0.015625)"/>
     </defs>
     <use xlink:href="#CMSS17-41" transform="scale(0.996264)"/>
     <use xlink:href="#CMSS17-30" transform="translate(62.217855 0) scale(0.996264)"/>
     <use xlink:href="#CMSS17-30" transform="translate(109.061478 0) scale(0.996264)"/>
     <use xlink:href="#CMSS17-38" transform="translate(155.905102 0) scale(0.996264)"/>
    </g>
   </g>
   <g id="text_8">
    <!-- A009 -->
    <g transform="translate(204.207213 334.13244) scale(0.2 -0.2)">
     <defs>
      <path id="CMSS17-39" d="M 435 174 
C 614 21 845 -128 1235 -128 
C 2010 -128 2752 721 2752 2095 
C 2752 3932 1952 4229 1523 4229 
C 1094 4229 819 4041 582 3741 
C 301 3397 250 3090 250 2733 
C 250 2307 326 2045 506 1745 
C 749 1357 973 1275 1222 1275 
C 1600 1275 1978 1459 2234 1776 
C 2189 902 1798 267 1235 267 
C 1005 267 819 339 634 516 
L 435 174 
z
M 2214 2746 
C 2221 2703 2221 2622 2221 2596 
C 2221 2074 1914 1664 1466 1664 
C 1171 1664 1018 1813 902 2006 
C 762 2249 755 2485 755 2733 
C 755 2976 755 3244 934 3511 
C 1069 3703 1235 3840 1523 3840 
C 2112 3840 2208 3000 2214 2746 
z
" transform="scale(0.015625)"/>
     </defs>
     <use xlink:href="#CMSS17-41" transform="scale(0.996264)"/>
     <use xlink:href="#CMSS17-30" transform="translate(62.217855 0) scale(0.996264)"/>
     <use xlink:href="#CMSS17-30" transform="translate(109.061478 0) scale(0.996264)"/>
     <use xlink:href="#CMSS17-39" transform="translate(155.905102 0) scale(0.996264)"/>
    </g>
   </g>
   <g id="text_9">
    <!-- A010 -->
    <g transform="translate(98.921517 241.181563) scale(0.2 -0.2)">
     <use xlink:href="#CMSS17-41" transform="scale(0.996264)"/>
     <use xlink:href="#CMSS17-30" transform="translate(62.217855 0) scale(0.996264)"/>
     <use xlink:href="#CMSS17-31" transform="translate(109.061478 0) scale(0.996264)"/>
     <use xlink:href="#CMSS17-30" transform="translate(155.905102 0) scale(0.996264)"/>
    </g>
   </g>
   <g id="text_10">
    <!-- A012 -->
    <g transform="translate(149.275335 65.298909) scale(0.2 -0.2)">
     <use xlink:href="#CMSS17-41" transform="scale(0.996264)"/>
     <use xlink:href="#CMSS17-30" transform="translate(62.217855 0) scale(0.996264)"/>
     <use xlink:href="#CMSS17-31" transform="translate(109.061478 0) scale(0.996264)"/>
     <use xlink:href="#CMSS17-32" transform="translate(155.905102 0) scale(0.996264)"/>
    </g>
   </g>
   <g id="legend_1">
    <g id="patch_62">
     <path d="M 491.37918 324.983452 
L 682.82 324.983452 
Q 686.82 324.983452 686.82 320.983452 
L 686.82 42.328319 
Q 686.82 38.328319 682.82 38.328319 
L 491.37918 38.328319 
Q 487.37918 38.328319 487.37918 42.328319 
L 487.37918 320.983452 
Q 487.37918 324.983452 491.37918 324.983452 
z
" style="fill: #ffffff; opacity: 0.8; stroke: #cccccc; stroke-linejoin: miter"/>
    </g>
    <g id="text_11">
     <!-- \textbf{Severity levels A002} -->
     <g transform="translate(495.37918 60.165316) scale(0.2 -0.2)">
      <defs>
       <path id="CMSSBX10-53" d="M 1728 2867 
C 1587 2899 1190 3049 1190 3418 
C 1190 3968 1734 3968 1952 3968 
C 2310 3968 2630 3884 2944 3574 
C 3046 3477 3053 3471 3078 3471 
C 3117 3471 3149 3490 3168 3587 
L 3264 4152 
C 3277 4203 3277 4216 3277 4236 
C 3277 4288 3270 4295 3110 4380 
C 2656 4608 2278 4641 1952 4641 
C 1382 4641 390 4505 390 3290 
C 390 2829 627 2531 749 2401 
C 1075 2063 1376 1998 1875 1882 
C 2234 1798 2374 1765 2515 1635 
C 2579 1571 2714 1434 2714 1187 
C 2714 577 2163 577 1952 577 
C 1414 577 947 795 627 1083 
C 550 1159 538 1159 512 1159 
C 474 1159 442 1140 422 1042 
L 326 476 
C 314 424 314 411 314 392 
C 314 255 979 21 1011 8 
C 1440 -128 1786 -128 1952 -128 
C 2912 -128 3514 305 3514 1308 
C 3514 2033 2982 2576 2342 2725 
L 1728 2867 
z
" transform="scale(0.015625)"/>
       <path id="CMSSBX10-65" d="M 2758 1385 
C 2906 1385 3066 1385 3066 1678 
C 3066 2514 2682 3072 1728 3072 
C 704 3072 198 2491 198 1510 
C 198 452 806 -64 1811 -64 
C 2054 -64 2419 -32 2842 182 
C 2982 253 3027 272 3027 350 
C 3027 395 3008 582 3002 633 
C 2976 833 2970 839 2912 839 
C 2886 839 2874 839 2803 775 
C 2426 447 2042 402 1837 402 
C 1114 402 1037 974 1018 1385 
L 2758 1385 
z
M 1024 1728 
C 1043 2122 1171 2606 1728 2606 
C 2240 2606 2336 2231 2355 1728 
L 1024 1728 
z
" transform="scale(0.015625)"/>
       <path id="CMSSBX10-76" d="M 2995 2671 
C 3027 2762 3027 2775 3027 2794 
C 3027 2976 2867 2976 2771 2976 
L 2637 2976 
C 2368 2976 2298 2879 2240 2697 
L 1606 734 
L 973 2697 
C 928 2833 883 2976 576 2976 
L 422 2976 
C 326 2976 166 2976 166 2794 
C 166 2775 166 2762 198 2670 
L 960 273 
C 1050 0 1248 0 1363 0 
L 1830 0 
C 1946 0 2144 0 2234 273 
L 2995 2671 
z
" transform="scale(0.015625)"/>
       <path id="CMSSBX10-72" d="M 1242 1496 
C 1242 2115 1747 2368 2150 2368 
C 2266 2368 2278 2368 2278 2555 
L 2278 2860 
C 2278 2989 2278 3034 2163 3034 
C 1984 3034 1517 2970 1216 2271 
L 1210 2271 
L 1210 2690 
C 1210 2897 1165 3001 902 3001 
L 698 3001 
C 467 3001 390 2930 390 2690 
L 390 310 
C 390 78 461 0 698 0 
L 934 0 
C 1178 0 1242 84 1242 312 
L 1242 1496 
z
" transform="scale(0.015625)"/>
       <path id="CMSSBX10-69" d="M 653 4480 
C 448 4480 346 4441 346 4182 
L 346 3885 
C 346 3678 410 3594 646 3594 
L 979 3594 
C 1286 3594 1286 3730 1286 4034 
C 1286 4344 1286 4480 979 4480 
L 653 4480 
z
M 1242 2634 
C 1242 2841 1197 2944 934 2944 
L 698 2944 
C 467 2944 390 2873 390 2634 
L 390 292 
C 390 60 461 -18 698 -18 
L 934 -18 
C 1178 -18 1242 66 1242 292 
L 1242 2634 
z
" transform="scale(0.015625)"/>
       <path id="CMSSBX10-74" d="M 1395 2496 
L 1965 2496 
C 2042 2496 2272 2496 2272 2729 
C 2272 2962 2042 2962 1965 2962 
L 1395 2962 
L 1395 3498 
C 1395 3705 1350 3808 1088 3808 
L 890 3808 
C 659 3808 582 3737 582 3498 
L 582 2962 
L 435 2962 
C 365 2962 128 2962 128 2729 
C 128 2496 358 2496 435 2496 
L 563 2496 
L 563 864 
C 563 213 794 -64 1235 -64 
C 1293 -64 1574 -64 1907 39 
C 2016 72 2387 188 2387 311 
C 2387 330 2374 376 2336 510 
C 2304 639 2291 678 2234 678 
C 2202 678 2195 671 2157 632 
C 2086 582 1914 440 1645 440 
C 1491 440 1395 550 1395 975 
L 1395 2496 
z
" transform="scale(0.015625)"/>
       <path id="CMSSBX10-79" d="M 2995 2640 
C 3027 2724 3027 2737 3027 2769 
C 3027 2944 2854 2944 2771 2944 
L 2630 2944 
C 2528 2944 2387 2944 2291 2795 
C 2272 2763 1754 1332 1722 897 
L 1715 897 
C 1683 1214 1421 1817 1146 2439 
C 966 2847 922 2944 602 2944 
L 435 2944 
C 346 2944 186 2944 186 2776 
C 186 2750 205 2705 218 2672 
L 1427 -23 
C 1376 -160 1357 -231 1338 -296 
C 1261 -509 1152 -801 806 -801 
C 595 -801 448 -711 378 -665 
C 346 -646 333 -639 314 -639 
C 282 -639 230 -659 230 -736 
C 230 -789 269 -1239 288 -1265 
C 346 -1344 691 -1344 794 -1344 
C 1587 -1344 1901 -581 1952 -425 
L 2995 2640 
z
" transform="scale(0.015625)"/>
       <path id="CMSSBX10-6c" d="M 1242 4170 
C 1242 4377 1197 4480 934 4480 
L 698 4480 
C 467 4480 390 4409 390 4170 
L 390 302 
C 390 70 461 -8 698 -8 
L 934 -8 
C 1178 -8 1242 76 1242 302 
L 1242 4170 
z
" transform="scale(0.015625)"/>
       <path id="CMSSBX10-73" d="M 2534 902 
C 2534 1267 2342 1496 2227 1600 
C 1971 1836 1747 1875 1478 1927 
C 1126 1992 870 2045 870 2299 
C 870 2566 1082 2619 1331 2619 
C 1760 2619 1990 2456 2157 2313 
C 2221 2248 2234 2248 2259 2248 
C 2323 2248 2336 2306 2342 2332 
C 2355 2384 2419 2747 2419 2779 
C 2419 2884 2080 2975 2010 3000 
C 1754 3072 1549 3072 1382 3072 
C 1094 3072 237 3072 237 2145 
C 237 1827 378 1633 550 1477 
C 774 1270 1024 1225 1389 1154 
C 1574 1121 1901 1062 1901 778 
C 1901 473 1651 427 1402 427 
C 1120 427 762 512 461 877 
C 429 909 410 928 371 928 
C 307 928 294 871 288 832 
C 275 743 198 378 198 313 
C 198 198 672 51 678 45 
C 1030 -64 1293 -64 1402 -64 
C 1728 -64 2534 -64 2534 902 
z
" transform="scale(0.015625)"/>
       <path id="CMSSBX10-41" d="M 3034 4202 
C 2938 4480 2752 4480 2624 4480 
L 2061 4480 
C 1933 4480 1747 4480 1651 4202 
L 301 303 
C 269 220 269 207 269 175 
C 269 0 429 0 518 0 
L 749 0 
C 864 0 1062 0 1152 254 
L 1402 960 
L 3174 960 
L 3392 350 
C 3469 127 3514 0 3821 0 
L 4166 0 
C 4256 0 4416 0 4416 172 
C 4416 204 4416 217 4384 301 
L 3034 4202 
z
M 2054 2891 
C 2150 3176 2234 3422 2285 3656 
L 2291 3656 
C 2323 3501 2323 3488 2374 3338 
L 2982 1516 
L 1594 1516 
L 2054 2891 
z
" transform="scale(0.015625)"/>
       <path id="CMSSBX10-30" d="M 3238 2223 
C 3238 3105 3238 4626 1760 4626 
C 275 4626 275 3118 275 2223 
C 275 1340 275 -128 1754 -128 
C 3238 -128 3238 1327 3238 2223 
z
M 1754 337 
C 1280 337 1210 929 1190 1103 
C 1146 1444 1146 2049 1146 2313 
C 1146 2692 1146 3104 1184 3420 
C 1203 3594 1267 4160 1754 4160 
C 2227 4160 2304 3620 2323 3490 
C 2368 3163 2368 2654 2368 2313 
C 2368 1946 2368 1444 2323 1090 
C 2304 923 2234 337 1754 337 
z
" transform="scale(0.015625)"/>
       <path id="CMSSBX10-32" d="M 416 548 
C 352 483 352 470 352 361 
L 352 309 
C 352 78 422 0 659 0 
L 2854 0 
C 3098 0 3162 83 3162 307 
L 3162 385 
C 3162 488 3162 609 3027 667 
C 2982 692 2778 692 2650 692 
C 2509 692 2355 692 2214 692 
L 1178 692 
L 2022 1497 
C 2118 1581 2362 1781 2458 1871 
C 2810 2219 3162 2560 3162 3133 
C 3162 3919 2598 4615 1658 4615 
C 1434 4615 1069 4582 762 4330 
C 704 4285 410 4053 294 3620 
L 614 3209 
C 653 3157 672 3131 717 3131 
C 774 3131 787 3176 806 3253 
C 934 3697 1152 3968 1562 3968 
C 2061 3968 2266 3511 2266 3117 
C 2266 2705 2022 2274 1638 1861 
L 416 548 
z
" transform="scale(0.015625)"/>
      </defs>
      <use xlink:href="#CMSSBX10-53" transform="scale(0.996264)"/>
      <use xlink:href="#CMSSBX10-65" transform="translate(60.883138 0) scale(0.996264)"/>
      <use xlink:href="#CMSSBX10-76" transform="translate(111.803591 0) scale(0.996264)"/>
      <use xlink:href="#CMSSBX10-65" transform="translate(161.617065 0) scale(0.996264)"/>
      <use xlink:href="#CMSSBX10-72" transform="translate(212.537518 0) scale(0.996264)"/>
      <use xlink:href="#CMSSBX10-69" transform="translate(249.620928 0) scale(0.996264)"/>
      <use xlink:href="#CMSSBX10-74" transform="translate(275.081147 0) scale(0.996264)"/>
      <use xlink:href="#CMSSBX10-79" transform="translate(312.302894 0) scale(0.996264)"/>
      <use xlink:href="#CMSSBX10-6c" transform="translate(398.646251 0) scale(0.996264)"/>
      <use xlink:href="#CMSSBX10-65" transform="translate(424.10647 0) scale(0.996264)"/>
      <use xlink:href="#CMSSBX10-76" transform="translate(475.026922 0) scale(0.996264)"/>
      <use xlink:href="#CMSSBX10-65" transform="translate(524.840396 0) scale(0.996264)"/>
      <use xlink:href="#CMSSBX10-6c" transform="translate(575.760849 0) scale(0.996264)"/>
      <use xlink:href="#CMSSBX10-73" transform="translate(601.221068 0) scale(0.996264)"/>
      <use xlink:href="#CMSSBX10-41" transform="translate(679.760317 0) scale(0.996264)"/>
      <use xlink:href="#CMSSBX10-30" transform="translate(752.820083 0) scale(0.996264)"/>
      <use xlink:href="#CMSSBX10-30" transform="translate(807.614907 0) scale(0.996264)"/>
      <use xlink:href="#CMSSBX10-32" transform="translate(862.409732 0) scale(0.996264)"/>
     </g>
    </g>
    <g id="patch_63">
     <path d="M 509.77765 101.253698 
L 549.77765 101.253698 
L 549.77765 87.253698 
L 509.77765 87.253698 
z
" style="fill: #ffb87a; stroke: #ffffff; stroke-linejoin: miter"/>
    </g>
    <g id="text_12">
     <!-- 0-Kein -->
     <g transform="translate(565.77765 87.877946) scale(0.2 -0.2)">
      <defs>
       <path id="CMSS17-2d" d="M 1664 1216 
L 1664 1585 
L 64 1585 
L 64 1216 
L 1664 1216 
z
" transform="scale(0.015625)"/>
       <path id="CMSS17-4b" d="M 2234 2666 
L 3827 4416 
L 3213 4416 
L 1101 2106 
L 1101 4416 
L 563 4416 
L 563 0 
L 1101 0 
L 1101 1432 
L 1875 2278 
L 3315 0 
L 3910 0 
L 2234 2666 
z
" transform="scale(0.015625)"/>
       <path id="CMSS17-65" d="M 2502 1377 
C 2502 1590 2490 2003 2285 2345 
C 2061 2713 1696 2816 1421 2816 
C 755 2816 192 2188 192 1375 
C 192 582 774 -64 1510 -64 
C 1798 -64 2150 19 2470 248 
C 2470 274 2458 414 2451 420 
C 2451 433 2432 630 2432 656 
C 2125 407 1773 325 1517 325 
C 1107 325 666 667 646 1377 
L 2502 1377 
z
M 698 1728 
C 781 2084 1062 2421 1421 2421 
C 1517 2421 1965 2421 2080 1728 
L 698 1728 
z
" transform="scale(0.015625)"/>
       <path id="CMSS17-69" d="M 979 4183 
L 442 4183 
L 442 3648 
L 979 3648 
L 979 4183 
z
M 947 2739 
L 474 2739 
L 474 0 
L 947 0 
L 947 2739 
z
" transform="scale(0.015625)"/>
       <path id="CMSS17-6e" d="M 2618 1877 
C 2618 2283 2522 2816 1798 2816 
C 1389 2816 1120 2606 941 2389 
L 941 2758 
L 474 2758 
L 474 0 
L 960 0 
L 960 1559 
C 960 1964 1114 2428 1549 2428 
C 2112 2428 2131 2048 2131 1829 
L 2131 0 
L 2618 0 
L 2618 1877 
z
" transform="scale(0.015625)"/>
      </defs>
      <use xlink:href="#CMSS17-30" transform="scale(0.996264)"/>
      <use xlink:href="#CMSS17-2d" transform="translate(46.843624 0) scale(0.996264)"/>
      <use xlink:href="#CMSS17-4b" transform="translate(78.072736 0) scale(0.996264)"/>
      <use xlink:href="#CMSS17-65" transform="translate(142.89303 0) scale(0.996264)"/>
      <use xlink:href="#CMSS17-69" transform="translate(184.531852 0) scale(0.996264)"/>
      <use xlink:href="#CMSS17-6e" transform="translate(206.712575 0) scale(0.996264)"/>
     </g>
     <!-- (Not-Sexist) -->
     <g transform="translate(565.77765 109.664806) scale(0.2 -0.2)">
      <defs>
       <path id="CMSS17-28" d="M 1613 4768 
C 1267 4417 474 3601 474 1588 
C 474 -433 1267 -1243 1613 -1600 
L 2003 -1600 
C 1216 -784 960 357 960 1581 
C 960 2798 1203 3946 2003 4768 
L 1613 4768 
z
" transform="scale(0.015625)"/>
       <path id="CMSS17-4e" d="M 1466 4180 
L 1350 4416 
L 563 4416 
L 563 0 
L 1062 0 
L 1062 3926 
L 1069 3932 
C 1114 3817 1139 3760 1402 3194 
L 2771 236 
L 2886 0 
L 3674 0 
L 3674 4416 
L 3174 4416 
L 3174 490 
L 3168 483 
C 3123 598 3098 655 2835 1221 
L 1466 4180 
z
" transform="scale(0.015625)"/>
       <path id="CMSS17-6f" d="M 2829 1356 
C 2829 2176 2221 2816 1504 2816 
C 768 2816 173 2157 173 1356 
C 173 544 787 -64 1498 -64 
C 2227 -64 2829 563 2829 1356 
z
M 1504 337 
C 1050 337 659 709 659 1408 
C 659 2151 1114 2427 1498 2427 
C 1914 2427 2342 2126 2342 1408 
C 2342 683 1926 337 1504 337 
z
" transform="scale(0.015625)"/>
       <path id="CMSS17-74" d="M 1069 2368 
L 1901 2368 
L 1901 2737 
L 1069 2737 
L 1069 3520 
L 614 3520 
L 614 2737 
L 109 2737 
L 109 2368 
L 602 2368 
L 602 749 
C 602 384 685 -64 1107 -64 
C 1427 -64 1722 25 2003 172 
L 1901 548 
C 1747 414 1562 337 1363 337 
C 1082 337 1069 696 1069 856 
L 1069 2368 
z
" transform="scale(0.015625)"/>
       <path id="CMSS17-53" d="M 2797 4169 
C 2515 4334 2208 4480 1690 4480 
C 864 4480 333 3879 333 3266 
C 333 3025 403 2753 653 2475 
C 902 2196 1184 2121 1542 2033 
C 1690 1994 1939 1924 1984 1906 
C 2342 1767 2515 1444 2515 1140 
C 2515 742 2202 318 1645 318 
C 1453 318 890 318 358 819 
L 269 318 
C 794 -64 1363 -128 1651 -128 
C 2438 -128 3002 488 3002 1186 
C 3002 1440 2925 1763 2656 2061 
C 2394 2347 2163 2410 1638 2549 
C 1338 2626 1146 2677 986 2873 
C 877 3013 819 3146 819 3317 
C 819 3673 1126 4060 1690 4060 
C 1971 4060 2336 4002 2707 3660 
L 2797 4169 
z
" transform="scale(0.015625)"/>
       <path id="CMSS17-78" d="M 1587 1414 
L 2656 2739 
L 2099 2739 
L 1363 1777 
L 602 2739 
L 32 2739 
L 1139 1414 
L 0 0 
L 563 0 
L 1363 1121 
L 2195 0 
L 2758 0 
L 1587 1414 
z
" transform="scale(0.015625)"/>
       <path id="CMSS17-73" d="M 2061 2627 
C 1683 2807 1389 2807 1197 2807 
C 742 2807 198 2648 198 2003 
C 198 1359 902 1218 1094 1179 
C 1389 1122 1715 1058 1715 740 
C 1715 337 1254 337 1171 337 
C 915 337 563 407 243 638 
L 166 210 
C 531 0 883 -64 1178 -64 
C 1965 -64 2163 416 2163 781 
C 2163 1094 1984 1305 1862 1401 
C 1651 1568 1574 1587 1050 1696 
C 960 1709 646 1779 646 2066 
C 646 2432 1050 2432 1139 2432 
C 1555 2432 1811 2303 1984 2208 
L 2061 2627 
z
" transform="scale(0.015625)"/>
       <path id="CMSS17-29" d="M 723 -1600 
C 1069 -1249 1862 -433 1862 1581 
C 1862 3601 1069 4411 723 4768 
L 333 4768 
C 1120 3952 1376 2811 1376 1588 
C 1376 370 1133 -778 333 -1600 
L 723 -1600 
z
" transform="scale(0.015625)"/>
      </defs>
      <use xlink:href="#CMSS17-28" transform="scale(0.996264)"/>
      <use xlink:href="#CMSS17-4e" transform="translate(36.433914 0) scale(0.996264)"/>
      <use xlink:href="#CMSS17-6f" transform="translate(102.495433 0) scale(0.996264)"/>
      <use xlink:href="#CMSS17-74" transform="translate(149.339057 0) scale(0.996264)"/>
      <use xlink:href="#CMSS17-2d" transform="translate(183.170624 0) scale(0.996264)"/>
      <use xlink:href="#CMSS17-53" transform="translate(214.399736 0) scale(0.996264)"/>
      <use xlink:href="#CMSS17-65" transform="translate(266.448253 0) scale(0.996264)"/>
      <use xlink:href="#CMSS17-78" transform="translate(308.087075 0) scale(0.996264)"/>
      <use xlink:href="#CMSS17-69" transform="translate(351.087216 0) scale(0.996264)"/>
      <use xlink:href="#CMSS17-73" transform="translate(373.267939 0) scale(0.996264)"/>
      <use xlink:href="#CMSS17-74" transform="translate(409.181481 0) scale(0.996264)"/>
      <use xlink:href="#CMSS17-29" transform="translate(443.013048 0) scale(0.996264)"/>
     </g>
    </g>
    <g id="patch_64">
     <path d="M 509.77765 151.842199 
L 549.77765 151.842199 
L 549.77765 137.842199 
L 509.77765 137.842199 
z
" style="fill: #ff9c44; stroke: #ffffff; stroke-linejoin: miter"/>
    </g>
    <g id="text_13">
     <!-- 1-Gering -->
     <g transform="translate(565.77765 138.466447) scale(0.2 -0.2)">
      <defs>
       <path id="CMSS17-47" d="M 3610 1856 
L 2336 1856 
L 2336 1461 
L 3123 1461 
L 3123 471 
C 2874 401 2618 350 2362 350 
C 1466 350 934 1301 934 2200 
C 934 3095 1491 4032 2362 4032 
C 2854 4032 3130 3881 3469 3627 
L 3552 4134 
C 3130 4351 2867 4440 2387 4440 
C 1146 4440 397 3324 397 2182 
C 397 1090 1152 -64 2349 -64 
C 2797 -64 3213 51 3610 248 
L 3610 1856 
z
" transform="scale(0.015625)"/>
       <path id="CMSS17-72" d="M 954 1363 
C 954 1965 1395 2368 1958 2368 
L 1958 2789 
C 1549 2789 1165 2585 934 2253 
L 934 2758 
L 480 2758 
L 480 0 
L 954 0 
L 954 1363 
z
" transform="scale(0.015625)"/>
       <path id="CMSS17-67" d="M 2848 2808 
C 2483 2808 2170 2738 1914 2617 
C 1702 2777 1485 2808 1338 2808 
C 781 2808 358 2349 358 1814 
C 358 1468 550 1207 563 1195 
C 448 1035 384 863 384 672 
C 384 448 474 289 544 200 
C 211 -3 166 -314 166 -435 
C 166 -898 749 -1280 1498 -1280 
C 2253 -1280 2835 -898 2835 -428 
C 2835 448 1856 448 1587 448 
L 1069 448 
C 973 448 717 448 717 791 
C 717 921 774 1004 781 1010 
C 877 940 1075 832 1338 832 
C 1869 832 2310 1278 2310 1827 
C 2310 2132 2170 2355 2112 2432 
L 2131 2432 
C 2150 2432 2419 2432 2515 2432 
C 2720 2432 2739 2429 2918 2419 
L 2848 2808 
z
M 1338 1182 
C 1120 1182 813 1315 813 1823 
C 813 2375 1165 2464 1331 2464 
C 1549 2464 1856 2331 1856 1823 
C 1856 1271 1504 1182 1338 1182 
z
M 1581 -10 
C 1734 -10 2381 -10 2381 -442 
C 2381 -714 1984 -929 1504 -929 
C 1018 -929 621 -720 621 -435 
C 621 -403 621 -10 1062 -10 
L 1581 -10 
z
" transform="scale(0.015625)"/>
      </defs>
      <use xlink:href="#CMSS17-31" transform="scale(0.996264)"/>
      <use xlink:href="#CMSS17-2d" transform="translate(46.843624 0) scale(0.996264)"/>
      <use xlink:href="#CMSS17-47" transform="translate(78.072736 0) scale(0.996264)"/>
      <use xlink:href="#CMSS17-65" transform="translate(140.530962 0) scale(0.996264)"/>
      <use xlink:href="#CMSS17-72" transform="translate(182.169784 0) scale(0.996264)"/>
      <use xlink:href="#CMSS17-69" transform="translate(214.079556 0) scale(0.996264)"/>
      <use xlink:href="#CMSS17-6e" transform="translate(236.260279 0) scale(0.996264)"/>
      <use xlink:href="#CMSS17-67" transform="translate(284.465223 0) scale(0.996264)"/>
     </g>
     <!-- (Mild) -->
     <g transform="translate(565.77765 160.253307) scale(0.2 -0.2)">
      <defs>
       <path id="CMSS17-4d" d="M 3194 2371 
L 2886 1473 
C 2835 1307 2662 791 2624 587 
L 2618 587 
C 2598 715 2560 849 2458 1174 
C 2400 1365 2336 1562 2272 1741 
L 1325 4416 
L 576 4416 
L 576 0 
L 1075 0 
L 1075 3900 
L 1082 3900 
C 1082 3894 1139 3613 1530 2499 
L 2374 96 
L 2848 96 
L 3610 2231 
C 3661 2378 3821 2843 3891 3066 
C 3955 3257 4115 3728 4154 3913 
L 4160 3913 
L 4160 0 
L 4666 0 
L 4666 4416 
L 3923 4416 
L 3194 2371 
z
" transform="scale(0.015625)"/>
       <path id="CMSS17-6c" d="M 947 4416 
L 474 4416 
L 474 0 
L 947 0 
L 947 4416 
z
" transform="scale(0.015625)"/>
       <path id="CMSS17-64" d="M 2611 4416 
L 2138 4416 
L 2138 2438 
C 1939 2603 1613 2756 1254 2756 
C 672 2756 211 2131 211 1347 
C 211 562 666 -64 1235 -64 
C 1677 -64 1971 172 2125 306 
L 2125 -13 
L 2611 -13 
L 2611 4416 
z
M 2125 836 
C 2125 747 2125 653 1926 482 
C 1798 375 1645 325 1498 325 
C 1152 325 698 576 698 1340 
C 698 2134 1210 2368 1562 2368 
C 1798 2368 1990 2254 2125 2065 
L 2125 836 
z
" transform="scale(0.015625)"/>
      </defs>
      <use xlink:href="#CMSS17-28" transform="scale(0.996264)"/>
      <use xlink:href="#CMSS17-4d" transform="translate(36.433914 0) scale(0.996264)"/>
      <use xlink:href="#CMSS17-69" transform="translate(118.109944 0) scale(0.996264)"/>
      <use xlink:href="#CMSS17-6c" transform="translate(140.290667 0) scale(0.996264)"/>
      <use xlink:href="#CMSS17-64" transform="translate(162.47139 0) scale(0.996264)"/>
      <use xlink:href="#CMSS17-29" transform="translate(210.676333 0) scale(0.996264)"/>
     </g>
    </g>
    <g id="patch_65">
     <path d="M 509.77765 202.430699 
L 549.77765 202.430699 
L 549.77765 188.430699 
L 509.77765 188.430699 
z
" style="fill: #ff7f0e; stroke: #ffffff; stroke-linejoin: miter"/>
    </g>
    <g id="text_14">
     <!-- 2-Vorhanden -->
     <g transform="translate(565.77765 189.054947) scale(0.2 -0.2)">
      <defs>
       <path id="CMSS17-56" d="M 3910 4416 
L 3411 4416 
L 2304 1362 
C 2272 1273 2074 688 2035 484 
L 2029 484 
C 1978 726 1773 1292 1664 1604 
L 922 3672 
L 646 4416 
L 83 4416 
L 1715 0 
L 2278 0 
L 3910 4416 
z
" transform="scale(0.015625)"/>
       <path id="CMSS17-68" d="M 2618 1891 
C 2618 2292 2522 2820 1798 2820 
C 1395 2820 1133 2623 947 2407 
L 947 4448 
L 474 4448 
L 474 32 
L 960 32 
L 960 1573 
C 960 1973 1114 2432 1549 2432 
C 2112 2432 2131 2056 2131 1839 
L 2131 32 
L 2618 32 
L 2618 1891 
z
" transform="scale(0.015625)"/>
       <path id="CMSS17-61" d="M 2406 1791 
C 2406 2392 1978 2808 1402 2808 
C 1120 2808 813 2757 461 2553 
L 499 2135 
C 659 2248 934 2432 1395 2432 
C 1722 2432 1920 2180 1920 1782 
L 1920 1536 
C 896 1536 256 1238 256 726 
C 256 461 416 -64 947 -64 
C 1043 -64 1562 -64 1933 217 
L 1933 -19 
L 2406 -19 
L 2406 1791 
z
M 1920 816 
C 1920 701 1920 548 1728 434 
C 1562 325 1350 325 1261 325 
C 941 325 723 511 723 744 
C 723 1211 1722 1211 1920 1211 
L 1920 816 
z
" transform="scale(0.015625)"/>
      </defs>
      <use xlink:href="#CMSS17-32" transform="scale(0.996264)"/>
      <use xlink:href="#CMSS17-2d" transform="translate(46.843624 0) scale(0.996264)"/>
      <use xlink:href="#CMSS17-56" transform="translate(78.072736 0) scale(0.996264)"/>
      <use xlink:href="#CMSS17-6f" transform="translate(137.688137 0) scale(0.996264)"/>
      <use xlink:href="#CMSS17-72" transform="translate(181.929307 0) scale(0.996264)"/>
      <use xlink:href="#CMSS17-68" transform="translate(213.839079 0) scale(0.996264)"/>
      <use xlink:href="#CMSS17-61" transform="translate(262.044023 0) scale(0.996264)"/>
      <use xlink:href="#CMSS17-6e" transform="translate(306.965943 0) scale(0.996264)"/>
      <use xlink:href="#CMSS17-64" transform="translate(355.170886 0) scale(0.996264)"/>
      <use xlink:href="#CMSS17-65" transform="translate(403.375829 0) scale(0.996264)"/>
      <use xlink:href="#CMSS17-6e" transform="translate(445.014651 0) scale(0.996264)"/>
     </g>
     <!-- (Apparent) -->
     <g transform="translate(565.77765 210.841807) scale(0.2 -0.2)">
      <defs>
       <path id="CMSS17-70" d="M 966 333 
C 1178 129 1466 -5 1773 -5 
C 2368 -5 2880 603 2880 1412 
C 2880 2159 2496 2816 1946 2816 
C 1626 2816 1242 2702 954 2472 
L 954 2765 
L 480 2765 
L 480 -1216 
L 966 -1216 
L 966 333 
z
M 966 2100 
C 1018 2176 1235 2415 1587 2415 
C 2035 2415 2394 1960 2394 1412 
C 2394 787 1958 384 1530 384 
C 1402 384 1267 415 1139 523 
C 966 674 966 768 966 857 
L 966 2100 
z
" transform="scale(0.015625)"/>
      </defs>
      <use xlink:href="#CMSS17-28" transform="scale(0.996264)"/>
      <use xlink:href="#CMSS17-41" transform="translate(36.433914 0) scale(0.996264)"/>
      <use xlink:href="#CMSS17-70" transform="translate(98.651769 0) scale(0.996264)"/>
      <use xlink:href="#CMSS17-70" transform="translate(146.856712 0) scale(0.996264)"/>
      <use xlink:href="#CMSS17-61" transform="translate(195.061655 0) scale(0.996264)"/>
      <use xlink:href="#CMSS17-72" transform="translate(237.381122 0) scale(0.996264)"/>
      <use xlink:href="#CMSS17-65" transform="translate(269.290895 0) scale(0.996264)"/>
      <use xlink:href="#CMSS17-6e" transform="translate(310.929717 0) scale(0.996264)"/>
      <use xlink:href="#CMSS17-74" transform="translate(359.13466 0) scale(0.996264)"/>
      <use xlink:href="#CMSS17-29" transform="translate(392.966227 0) scale(0.996264)"/>
     </g>
    </g>
    <g id="patch_66">
     <path d="M 509.77765 253.0192 
L 549.77765 253.0192 
L 549.77765 239.0192 
L 509.77765 239.0192 
z
" style="fill: #d76500; stroke: #ffffff; stroke-linejoin: miter"/>
    </g>
    <g id="text_15">
     <!-- 3-Stark -->
     <g transform="translate(565.77765 239.643448) scale(0.2 -0.2)">
      <defs>
       <path id="CMSS17-6b" d="M 1696 1688 
L 2688 2739 
L 2074 2739 
L 954 1554 
L 954 4416 
L 480 4416 
L 480 0 
L 947 0 
L 947 892 
L 1376 1344 
L 2278 0 
L 2822 0 
L 1696 1688 
z
" transform="scale(0.015625)"/>
      </defs>
      <use xlink:href="#CMSS17-33" transform="scale(0.996264)"/>
      <use xlink:href="#CMSS17-2d" transform="translate(46.843624 0) scale(0.996264)"/>
      <use xlink:href="#CMSS17-53" transform="translate(78.072736 0) scale(0.996264)"/>
      <use xlink:href="#CMSS17-74" transform="translate(130.121252 0) scale(0.996264)"/>
      <use xlink:href="#CMSS17-61" transform="translate(163.952819 0) scale(0.996264)"/>
      <use xlink:href="#CMSS17-72" transform="translate(206.272286 0) scale(0.996264)"/>
      <use xlink:href="#CMSS17-6b" transform="translate(238.182058 0) scale(0.996264)"/>
     </g>
     <!-- (Strong) -->
     <g transform="translate(565.77765 261.430308) scale(0.2 -0.2)">
      <use xlink:href="#CMSS17-28" transform="scale(0.996264)"/>
      <use xlink:href="#CMSS17-53" transform="translate(36.433914 0) scale(0.996264)"/>
      <use xlink:href="#CMSS17-74" transform="translate(88.48243 0) scale(0.996264)"/>
      <use xlink:href="#CMSS17-72" transform="translate(122.313997 0) scale(0.996264)"/>
      <use xlink:href="#CMSS17-6f" transform="translate(154.22377 0) scale(0.996264)"/>
      <use xlink:href="#CMSS17-6e" transform="translate(201.067393 0) scale(0.996264)"/>
      <use xlink:href="#CMSS17-67" transform="translate(249.272336 0) scale(0.996264)"/>
      <use xlink:href="#CMSS17-29" transform="translate(296.11596 0) scale(0.996264)"/>
     </g>
    </g>
    <g id="patch_67">
     <path d="M 509.77765 303.6077 
L 549.77765 303.6077 
L 549.77765 289.6077 
L 509.77765 289.6077 
z
" style="fill: #a14c00; stroke: #ffffff; stroke-linejoin: miter"/>
    </g>
    <g id="text_16">
     <!-- 4-Extrem -->
     <g transform="translate(565.77765 290.231948) scale(0.2 -0.2)">
      <defs>
       <path id="CMSS17-45" d="M 1958 433 
C 1446 433 1216 433 1101 433 
L 1101 2107 
L 3085 2107 
L 3085 2496 
L 1101 2496 
L 1101 4009 
L 1926 4009 
C 2003 4009 2080 4009 2157 4009 
L 3251 4009 
L 3251 4416 
L 563 4416 
L 563 0 
L 3334 0 
L 3334 433 
L 1958 433 
z
" transform="scale(0.015625)"/>
       <path id="CMSS17-6d" d="M 4288 1877 
C 4288 2308 4179 2816 3462 2816 
C 2982 2816 2694 2516 2566 2331 
C 2451 2670 2182 2816 1798 2816 
C 1363 2816 1088 2568 941 2389 
L 941 2758 
L 474 2758 
L 474 0 
L 960 0 
L 960 1559 
C 960 1939 1101 2428 1555 2428 
C 2138 2428 2138 2016 2138 1829 
L 2138 0 
L 2624 0 
L 2624 1559 
C 2624 1939 2765 2428 3219 2428 
C 3802 2428 3802 2016 3802 1829 
L 3802 0 
L 4288 0 
L 4288 1877 
z
" transform="scale(0.015625)"/>
      </defs>
      <use xlink:href="#CMSS17-34" transform="scale(0.996264)"/>
      <use xlink:href="#CMSS17-2d" transform="translate(46.843624 0) scale(0.996264)"/>
      <use xlink:href="#CMSS17-45" transform="translate(78.072736 0) scale(0.996264)"/>
      <use xlink:href="#CMSS17-78" transform="translate(133.964749 0) scale(0.996264)"/>
      <use xlink:href="#CMSS17-74" transform="translate(176.964891 0) scale(0.996264)"/>
      <use xlink:href="#CMSS17-72" transform="translate(210.796458 0) scale(0.996264)"/>
      <use xlink:href="#CMSS17-65" transform="translate(242.70623 0) scale(0.996264)"/>
      <use xlink:href="#CMSS17-6d" transform="translate(284.345052 0) scale(0.996264)"/>
     </g>
     <!-- (Severe) -->
     <g transform="translate(565.77765 312.018808) scale(0.2 -0.2)">
      <defs>
       <path id="CMSS17-76" d="M 2675 2752 
L 2176 2752 
L 1747 1556 
C 1613 1165 1421 627 1389 352 
L 1382 352 
C 1370 468 1318 634 1286 749 
C 1248 890 1197 1056 1158 1172 
L 595 2752 
L 83 2752 
L 1094 0 
L 1664 0 
L 2675 2752 
z
" transform="scale(0.015625)"/>
      </defs>
      <use xlink:href="#CMSS17-28" transform="scale(0.996264)"/>
      <use xlink:href="#CMSS17-53" transform="translate(36.433914 0) scale(0.996264)"/>
      <use xlink:href="#CMSS17-65" transform="translate(88.48243 0) scale(0.996264)"/>
      <use xlink:href="#CMSS17-76" transform="translate(130.121252 0) scale(0.996264)"/>
      <use xlink:href="#CMSS17-65" transform="translate(173.121394 0) scale(0.996264)"/>
      <use xlink:href="#CMSS17-72" transform="translate(214.760216 0) scale(0.996264)"/>
      <use xlink:href="#CMSS17-65" transform="translate(246.669989 0) scale(0.996264)"/>
      <use xlink:href="#CMSS17-29" transform="translate(288.308811 0) scale(0.996264)"/>
     </g>
    </g>
   </g>
  </g>
 </g>
</svg>
